<?xml version="1.0" encoding="UTF-8"?>
<!DOCTYPE svg PUBLIC "-//W3C//DTD SVG 1.0//EN" "http://www.w3.org/TR/2001/REC-SVG-20010904/DTD/svg10.dtd">
<!-- Creator: CorelDRAW X6 -->
<svg xmlns="http://www.w3.org/2000/svg" xml:space="preserve" width="100%" height="100%" version="1.0" shape-rendering="geometricPrecision" text-rendering="geometricPrecision" image-rendering="optimizeQuality" fill-rule="evenodd" clip-rule="evenodd"
viewBox="0 0 4335 4335"
 xmlns:xlink="http://www.w3.org/1999/xlink">
 <defs>
   <clipPath id="id0">
    <rect x="-7112" y="3759" width="3691" height="762"/>
   </clipPath>
 </defs>
 <g id="Слой_x0020_2">
  <metadata id="CorelCorpID_0Corel-Layer"/>
  <g id="_325316568">
   <path fill="black" fill-rule="nonzero" d="M-5117 -66l212 736 193 -685c21,-71 36,-120 46,-146 10,-26 28,-51 56,-75 27,-23 65,-35 113,-35 48,0 86,12 113,35 28,24 47,50 58,77 11,28 27,76 47,144l192 685 215 -736c14,-53 26,-92 34,-116 9,-23 24,-44 44,-62 21,-18 51,-27 90,-27 39,0 72,13 101,41 29,27 43,59 43,96 0,34 -12,85 -37,153l-266 789c-23,67 -41,115 -53,145 -13,29 -33,56 -61,79 -27,24 -64,35 -112,35 -49,0 -88,-12 -116,-37 -29,-25 -49,-56 -63,-92 -13,-36 -28,-83 -44,-141l-185 -641 -181 641c-23,90 -49,157 -77,202 -28,46 -77,68 -146,68 -36,0 -67,-7 -92,-21 -25,-14 -45,-34 -62,-60 -17,-26 -31,-57 -44,-93 -13,-36 -23,-64 -30,-85l-263 -789c-27,-74 -40,-125 -40,-153 0,-35 14,-67 42,-95 28,-28 62,-42 102,-42 55,0 91,15 110,46 19,31 40,84 61,159z"/>
   <rect fill="black" stroke="black" stroke-width="20" x="-6457" y="-270" width="1270" height="195" rx="68" ry="97"/>
   <rect fill="black" stroke="black" stroke-width="20" x="-3802" y="-267" width="1270" height="195" rx="68" ry="97"/>
   <rect fill="black" stroke="black" stroke-width="20" x="-6464" y="12" width="212" height="1058"/>
   <rect fill="black" stroke="black" stroke-width="20" x="-3543" y="12" width="212" height="1058"/>
   <path fill="black" fill-rule="nonzero" d="M-3284 1073l-1 -244c296,77 601,-34 727,-269 10,388 -505,542 -726,513z"/>
   <path fill="black" fill-rule="nonzero" d="M-6205 1067l-2 -296c359,93 729,-41 881,-326 12,470 -612,657 -879,622z"/>
   <path fill="black" fill-rule="nonzero" d="M-3282 528l-2 -164c200,51 404,-23 489,-181 6,261 -339,364 -487,345z"/>
  </g>
  <g clip-path="url(#id0)">
   <image id="logo.png" x="-7112" y="3759" width="3691" height="762" xlink:href="newLogo_Images\newLogo_ImgID1.png"/>
  </g>
  <circle fill="#DDF3FC" stroke="#02B1FF" stroke-width="84.66" cx="2143" cy="2120" r="1769"/>
  <circle fill="none" stroke="#055F94" stroke-width="84.66" cx="2143" cy="2120" r="1826"/>
  <path fill="#02B1FF" stroke="#133759" stroke-width="42.33" d="M635 1549c269,0 538,0 807,0 322,44 322,308 432,623 0,15 149,-665 356,-623 76,15 150,15 325,616 3,8 126,-560 330,-594 30,-5 -49,80 -51,161 -5,157 3,329 0,403 -7,149 -125,396 -271,403 -220,11 -335,-627 -345,-622 -79,39 -80,586 -363,614 -289,-28 -274,-710 -472,-761l-748 0 0 -220z"/>
  <rect fill="#7BCAF7" x="743" y="1575" width="112" height="169"/>
  <rect fill="#1186B8" x="936" y="1575" width="91.5608" height="169.341"/>
  <rect fill="#133759" x="634" y="1547" width="127" height="220"/>
  <path fill="white" stroke="#133759" stroke-width="67.73" d="M631 1859l191 0c1,160 3,319 4,478 61,-8 480,65 703,-134l77 206c-95,191 -618,163 -975,169l0 -719z"/>
  <path fill="white" stroke="#133759" stroke-width="67.73" d="M3704 1564c-248,6 -647,7 -674,7 -103,4 -124,48 -132,202 -4,86 3,347 2,545 -1,159 -16,212 108,261l681 -4 8 -172 -571 0 -8 -242 506 -7 0 -161 -506 -7 0 -220 587 0 -1 -202z"/>
 </g>
</svg>
