<?xml version="1.0" encoding="UTF-8"?>
<!DOCTYPE svg PUBLIC "-//W3C//DTD SVG 1.0//EN" "http://www.w3.org/TR/2001/REC-SVG-20010904/DTD/svg10.dtd">
<!-- Creator: CorelDRAW X6 -->
<svg xmlns="http://www.w3.org/2000/svg" xml:space="preserve" width="100%" height="100%" version="1.0" shape-rendering="geometricPrecision" text-rendering="geometricPrecision" image-rendering="optimizeQuality" fill-rule="evenodd" clip-rule="evenodd"
viewBox="0 0 3082 3082"
 xmlns:xlink="http://www.w3.org/1999/xlink">
 <g id="Слой_x0020_1">
  <metadata id="CorelCorpID_0Corel-Layer"/>
  <g id="_319540136">
   <path fill="white" stroke="#123659" stroke-width="33.87" d="M520 1439l132 7 3 335c304,16 264,12 493,-88l44 161c-286,114 -326,95 -679,92l7 -507 0 0zm2452 10l0 193c-5,74 -17,147 -36,216 -65,235 -189,481 -359,650 -346,344 -643,417 -1116,417 -450,0 -864,-307 -1072,-622 -47,-73 -84,-148 -119,-225 -61,-133 -114,-354 -114,-550 0,-1236 1514,-1893 2433,-968 220,222 360,559 383,889zm-815 481c-57,-77 -77,-472 -40,-596 44,-151 391,-98 553,-89l6 121c-94,0 -212,-12 -301,-5 -126,10 -111,39 -104,161l353 9 2 115 -353 8c-27,206 -61,166 409,168l-1 124c-155,1 -381,23 -524,-16zm-1536 -550l-110 -4 1 -153 111 0 97 -2 112 0c588,-7 365,114 550,435 88,-174 62,-372 239,-433 108,37 123,91 156,195 40,126 34,177 103,234 39,-173 57,-337 202,-399 -33,250 9,562 -209,668 -210,-60 -133,-301 -252,-431 -55,96 -113,487 -281,424 -154,-139 -121,-237 -201,-430 -62,-148 -330,-106 -518,-104l0 0z"/>
   <path fill="#02ABFA" d="M621 1380c188,-2 456,-44 518,104 80,193 47,291 201,430 168,63 226,-328 281,-424 119,130 42,371 252,431 218,-106 176,-418 209,-668 -145,62 -163,226 -202,399 -69,-57 -63,-108 -103,-234 -33,-104 -48,-158 -156,-195 -177,61 -151,259 -239,433 -185,-321 38,-442 -550,-435 -4,143 9,95 -35,155l-46 0 -29 -53c-5,-24 -2,-77 -2,-102l-97 2 -2 157z"/>
   <path fill="#FAFBFD" d="M2157 1930c143,39 369,17 524,16l1 -124c-470,-2 -436,38 -409,-168l353 -8 -2 -115 -353 -9c-7,-122 -22,-151 104,-161 89,-7 207,5 301,5l-6 -121c-162,-9 -509,-62 -553,89 -37,124 -17,519 40,596z"/>
   <path fill="#FAFBFD" d="M513 1946c353,3 393,22 679,-92l-44 -161c-229,100 -189,104 -493,88l-3 -335 -132 -7 -7 507 0 0z"/>
   <polygon fill="#016394" points="621,1380 623,1223 512,1223 511,1376 "/>
   <path fill="#54C5F9" d="M832 1221l-112 0c0,81 -15,90 31,155l46 0c44,-60 31,-12 35,-155l0 0z"/>
  </g>
 </g>
</svg>
