<?xml version="1.0" encoding="iso-8859-1"?>
<!-- Generator: Adobe Illustrator 19.0.0, SVG Export Plug-In . SVG Version: 6.00 Build 0)  -->
<svg version="1.1" id="Capa_1" xmlns="http://www.w3.org/2000/svg" xmlns:xlink="http://www.w3.org/1999/xlink" x="0px" y="0px"
	 viewBox="0 0 512 512" style="enable-background:new 0 0 512 512;" xml:space="preserve">
<path style="fill:#80DBFF;" d="M386.738,54.153L386.738,54.153c-72.205-72.204-189.271-72.204-261.475,0l0,0
	c-62.945,62.945-72.101,161.809-21.785,235.243L255.999,512l152.523-222.604C458.839,215.962,449.683,117.099,386.738,54.153z"/>
<path style="fill:#19CFFC;" d="M386.738,54.153L386.738,54.153C350.635,18.051,303.318,0,255.999,0c0,51.387,0,512,0,512
	l152.523-222.604C458.839,215.962,449.683,117.099,386.738,54.153z"/>
<polygon style="fill:#E4E4E4;" points="185.455,157.713 185.455,246.449 326.54,246.449 326.54,157.713 255.999,98.449 "/>
<polygon style="fill:#D9D9D9;" points="255.999,246.449 326.54,246.449 326.54,157.713 255.999,98.449 "/>
<polygon style="fill:#FA5D0F;" points="345.496,191.006 255.996,117.823 166.868,190.648 147.886,167.417 256.004,79.076 
	364.486,167.781 "/>
<polygon style="fill:#F24500;" points="345.496,191.006 255.996,117.823 256.004,79.076 364.486,167.781 "/>
<rect x="240.999" y="199.88" style="fill:#9E5015;" width="30" height="46.572"/>
<rect x="255.809" y="199.88" style="fill:#8A4711;" width="15.188" height="46.572"/>
<g>
</g>
<g>
</g>
<g>
</g>
<g>
</g>
<g>
</g>
<g>
</g>
<g>
</g>
<g>
</g>
<g>
</g>
<g>
</g>
<g>
</g>
<g>
</g>
<g>
</g>
<g>
</g>
<g>
</g>
</svg>
